<?xml version="1.0" encoding="UTF-8"?>
<svg xmlns="http://www.w3.org/2000/svg" width="198" height="28" viewBox="0 0 198 28" fill="none">
  <path d="M7.40836 2.62273C9.88127 2.62273 11.819 3.21327 13.2215 4.39436C14.6241 5.57545 15.3254 7.19945 15.3254 9.26636C15.3254 11.3333 14.6241 12.9573 13.2215 14.1384C11.819 15.301 9.88127 15.8823 7.40836 15.8823H2.20418V22H0.155727V2.62273H7.40836ZM7.353 14.083C9.27227 14.083 10.7394 13.6678 11.7544 12.8373C12.7694 11.9884 13.2769 10.7981 13.2769 9.26636C13.2769 7.69773 12.7694 6.49818 11.7544 5.66773C10.7394 4.81882 9.27227 4.39436 7.353 4.39436H2.20418V14.083H7.353ZM20.8433 10.2906C21.3047 9.3125 21.9875 8.57432 22.8918 8.07604C23.8145 7.57777 24.9495 7.32864 26.2967 7.32864V9.23868L25.8261 9.211C24.2943 9.211 23.0948 9.68159 22.2274 10.6228C21.3601 11.564 20.9264 12.8835 20.9264 14.5813V22H18.961V7.43936H20.8433V10.2906ZM35.6717 22.1384C34.2692 22.1384 33.005 21.8247 31.8793 21.1972C30.7536 20.5513 29.8678 19.6655 29.2219 18.5398C28.5759 17.414 28.253 16.1407 28.253 14.7197C28.253 13.2987 28.5759 12.0253 29.2219 10.8996C29.8678 9.77386 30.7536 8.89727 31.8793 8.26982C33.005 7.64236 34.2692 7.32864 35.6717 7.32864C37.0743 7.32864 38.3384 7.64236 39.4641 8.26982C40.5899 8.89727 41.4664 9.77386 42.0939 10.8996C42.7398 12.0253 43.0628 13.2987 43.0628 14.7197C43.0628 16.1407 42.7398 17.414 42.0939 18.5398C41.4664 19.6655 40.5899 20.5513 39.4641 21.1972C38.3384 21.8247 37.0743 22.1384 35.6717 22.1384ZM35.6717 20.3945C36.7052 20.3945 37.6279 20.1638 38.4399 19.7024C39.2704 19.2226 39.9163 18.549 40.3776 17.6816C40.839 16.8143 41.0697 15.827 41.0697 14.7197C41.0697 13.6124 40.839 12.6251 40.3776 11.7577C39.9163 10.8904 39.2704 10.226 38.4399 9.76464C37.6279 9.28482 36.7052 9.04491 35.6717 9.04491C34.6383 9.04491 33.7063 9.28482 32.8759 9.76464C32.0639 10.226 31.4179 10.8904 30.9381 11.7577C30.4768 12.6251 30.2461 13.6124 30.2461 14.7197C30.2461 15.827 30.4768 16.8143 30.9381 17.6816C31.4179 18.549 32.0639 19.2226 32.8759 19.7024C33.7063 20.1638 34.6383 20.3945 35.6717 20.3945ZM44.9161 27.5087C44.3071 27.5087 43.7351 27.4256 43.1999 27.2595C42.6462 27.1119 42.1941 26.8812 41.8435 26.5675L42.5355 25.0727C43.1076 25.571 43.8642 25.8201 44.8054 25.8201C45.5805 25.8201 46.1711 25.5894 46.5771 25.128C47.0015 24.6667 47.2137 23.9839 47.2137 23.0796V7.43936H49.1791V23.0796C49.1791 24.4452 48.8101 25.5248 48.0719 26.3184C47.3337 27.1119 46.2818 27.5087 44.9161 27.5087ZM48.2103 4.22827C47.8043 4.22827 47.4629 4.08986 47.1861 3.81305C46.9092 3.53623 46.7708 3.20404 46.7708 2.8165C46.7708 2.44741 46.9092 2.12445 47.1861 1.84764C47.4629 1.57082 47.8043 1.43241 48.2103 1.43241C48.6163 1.43241 48.9577 1.57082 49.2345 1.84764C49.5113 2.106 49.6497 2.41973 49.6497 2.78882C49.6497 3.19482 49.5113 3.53623 49.2345 3.81305C48.9577 4.08986 48.6163 4.22827 48.2103 4.22827ZM67.3499 15.3287H55.1699C55.2806 16.842 55.8619 18.0692 56.9138 19.0104C57.9657 19.9331 59.2945 20.3945 60.9 20.3945C61.8043 20.3945 62.6347 20.2376 63.3914 19.9239C64.148 19.5917 64.8032 19.1119 65.3568 18.4844L66.4641 19.7578C65.8182 20.5329 65.0062 21.1234 64.0281 21.5294C63.0684 21.9354 62.0073 22.1384 60.8447 22.1384C59.3498 22.1384 58.0211 21.8247 56.8585 21.1972C55.7143 20.5513 54.8192 19.6655 54.1733 18.5398C53.5274 17.414 53.2045 16.1407 53.2045 14.7197C53.2045 13.2987 53.509 12.0253 54.118 10.8996C54.7454 9.77386 55.5943 8.89727 56.6647 8.26982C57.7535 7.64236 58.9715 7.32864 60.3187 7.32864C61.6659 7.32864 62.8747 7.64236 63.945 8.26982C65.0154 8.89727 65.8551 9.77386 66.4641 10.8996C67.0731 12.0069 67.3776 13.2802 67.3776 14.7197L67.3499 15.3287ZM60.3187 9.01723C58.9162 9.01723 57.7351 9.46936 56.7754 10.3736C55.8342 11.2595 55.2991 12.4221 55.1699 13.8615H65.4952C65.366 12.4221 64.8216 11.2595 63.862 10.3736C62.9208 9.46936 61.7397 9.01723 60.3187 9.01723ZM77.4127 22.1384C75.9732 22.1384 74.6814 21.8247 73.5372 21.1972C72.4115 20.5698 71.5257 19.6932 70.8797 18.5675C70.2338 17.4233 69.9109 16.1407 69.9109 14.7197C69.9109 13.2987 70.2338 12.0253 70.8797 10.8996C71.5257 9.77386 72.4115 8.89727 73.5372 8.26982C74.6814 7.64236 75.9732 7.32864 77.4127 7.32864C78.6676 7.32864 79.7841 7.57777 80.7622 8.07604C81.7587 8.55586 82.543 9.26636 83.1151 10.2075L81.648 11.2041C81.1682 10.4844 80.5592 9.94918 79.821 9.59855C79.0828 9.22945 78.28 9.04491 77.4127 9.04491C76.3607 9.04491 75.4103 9.28482 74.5614 9.76464C73.731 10.226 73.0758 10.8904 72.596 11.7577C72.1347 12.6251 71.904 13.6124 71.904 14.7197C71.904 15.8454 72.1347 16.842 72.596 17.7093C73.0758 18.5582 73.731 19.2226 74.5614 19.7024C75.4103 20.1638 76.3607 20.3945 77.4127 20.3945C78.28 20.3945 79.0828 20.2191 79.821 19.8685C80.5592 19.5179 81.1682 18.9827 81.648 18.263L83.1151 19.2595C82.543 20.2007 81.7587 20.9204 80.7622 21.4187C79.7656 21.8985 78.6491 22.1384 77.4127 22.1384ZM94.8061 21.1142C94.437 21.4464 93.9757 21.7047 93.422 21.8893C92.8869 22.0554 92.324 22.1384 91.7335 22.1384C90.3678 22.1384 89.3159 21.7693 88.5777 21.0311C87.8395 20.293 87.4705 19.2503 87.4705 17.9031V9.10027H84.8684V7.43936H87.4705V4.25595H89.4359V7.43936H93.865V9.10027H89.4359V17.7924C89.4359 18.6597 89.6481 19.3241 90.0725 19.7855C90.5155 20.2284 91.1429 20.4498 91.9549 20.4498C92.3609 20.4498 92.7485 20.3852 93.1175 20.256C93.5051 20.1269 93.8373 19.9423 94.1141 19.7024L94.8061 21.1142ZM105.781 2.62273H114.583C116.687 2.62273 118.542 3.02873 120.148 3.84073C121.772 4.63427 123.026 5.76 123.912 7.21791C124.817 8.67582 125.269 10.3736 125.269 12.3114C125.269 14.2491 124.817 15.9469 123.912 17.4048C123.026 18.8627 121.772 19.9977 120.148 20.8097C118.542 21.6032 116.687 22 114.583 22H105.781V2.62273ZM114.362 18.3183C116.3 18.3183 117.841 17.7831 118.985 16.7128C120.148 15.624 120.729 14.1568 120.729 12.3114C120.729 10.4659 120.148 9.008 118.985 7.93764C117.841 6.84882 116.3 6.30441 114.362 6.30441H110.265V18.3183H114.362ZM128.346 7.10718H132.664V22H128.346V7.10718ZM130.505 5.03104C129.712 5.03104 129.066 4.80036 128.568 4.339C128.069 3.87764 127.82 3.30554 127.82 2.62273C127.82 1.93991 128.069 1.36782 128.568 0.906454C129.066 0.44509 129.712 0.214408 130.505 0.214408C131.299 0.214408 131.945 0.435863 132.443 0.878773C132.941 1.32168 133.19 1.87532 133.19 2.53968C133.19 3.25941 132.941 3.85918 132.443 4.339C131.945 4.80036 131.299 5.03104 130.505 5.03104ZM152.036 7.10718V19.5086C152.036 22.2399 151.325 24.2699 149.904 25.5986C148.483 26.9274 146.407 27.5917 143.676 27.5917C142.236 27.5917 140.871 27.4164 139.579 27.0658C138.287 26.7151 137.217 26.2076 136.368 25.5433L138.084 22.4429C138.712 22.9596 139.505 23.3656 140.465 23.6609C141.424 23.9746 142.384 24.1315 143.344 24.1315C144.838 24.1315 145.936 23.7901 146.638 23.1073C147.357 22.4429 147.717 21.4279 147.717 20.0623V19.4256C146.592 20.662 145.023 21.2803 143.011 21.2803C141.646 21.2803 140.391 20.985 139.247 20.3945C138.121 19.7855 137.226 18.9365 136.562 17.8477C135.897 16.7589 135.565 15.504 135.565 14.083C135.565 12.662 135.897 11.4071 136.562 10.3183C137.226 9.22945 138.121 8.38977 139.247 7.79923C140.391 7.19023 141.646 6.88573 143.011 6.88573C145.171 6.88573 146.813 7.59623 147.939 9.01723V7.10718H152.036ZM143.87 17.737C145.014 17.737 145.946 17.4048 146.665 16.7405C147.404 16.0576 147.773 15.1718 147.773 14.083C147.773 12.9942 147.404 12.1176 146.665 11.4532C145.946 10.7704 145.014 10.429 143.87 10.429C142.725 10.429 141.784 10.7704 141.046 11.4532C140.308 12.1176 139.939 12.9942 139.939 14.083C139.939 15.1718 140.308 16.0576 141.046 16.7405C141.784 17.4048 142.725 17.737 143.87 17.737ZM156.055 7.10718H160.373V22H156.055V7.10718ZM158.214 5.03104C157.421 5.03104 156.775 4.80036 156.276 4.339C155.778 3.87764 155.529 3.30554 155.529 2.62273C155.529 1.93991 155.778 1.36782 156.276 0.906454C156.775 0.44509 157.421 0.214408 158.214 0.214408C159.008 0.214408 159.654 0.435863 160.152 0.878773C160.65 1.32168 160.899 1.87532 160.899 2.53968C160.899 3.25941 160.65 3.85918 160.152 4.339C159.654 4.80036 159.008 5.03104 158.214 5.03104ZM173.987 21.2803C173.562 21.594 173.036 21.8339 172.409 22C171.8 22.1476 171.154 22.2215 170.471 22.2215C168.7 22.2215 167.325 21.7693 166.347 20.865C165.387 19.9608 164.907 18.632 164.907 16.8789V10.7612H162.61V7.43936H164.907V3.81305H169.225V7.43936H172.935V10.7612H169.225V16.8235C169.225 17.451 169.382 17.94 169.696 18.2906C170.028 18.6228 170.49 18.7889 171.08 18.7889C171.763 18.7889 172.344 18.6044 172.824 18.2353L173.987 21.2803ZM182.418 6.88573C184.725 6.88573 186.496 7.43936 187.733 8.54664C188.969 9.63545 189.587 11.2871 189.587 13.5017V22H185.546V20.1453C184.734 21.5294 183.221 22.2215 181.006 22.2215C179.862 22.2215 178.865 22.0277 178.016 21.6401C177.186 21.2526 176.549 20.7174 176.106 20.0346C175.663 19.3518 175.442 18.5767 175.442 17.7093C175.442 16.3252 175.959 15.2364 176.992 14.4429C178.044 13.6493 179.659 13.2525 181.836 13.2525H185.269C185.269 12.3114 184.983 11.5916 184.411 11.0934C183.839 10.5766 182.981 10.3183 181.836 10.3183C181.043 10.3183 180.259 10.4475 179.484 10.7058C178.727 10.9457 178.081 11.2779 177.546 11.7024L175.996 8.68504C176.808 8.11295 177.776 7.67004 178.902 7.35632C180.046 7.04259 181.218 6.88573 182.418 6.88573ZM182.086 19.3149C182.824 19.3149 183.479 19.1488 184.051 18.8166C184.623 18.466 185.029 17.9585 185.269 17.2941V15.7716H182.307C180.535 15.7716 179.65 16.3529 179.65 17.5155C179.65 18.0692 179.862 18.5121 180.286 18.8443C180.729 19.158 181.329 19.3149 182.086 19.3149ZM193.496 1.46009H197.814V22H193.496V1.46009Z" fill="#252525"></path>
</svg>
