<svg width="285" height="41" viewBox="0 0 285 41" fill="none" xmlns="http://www.w3.org/2000/svg">
<g clip-path="url(#clip0_19981_174700)">
<path d="M10.1378 4.68201L10.6507 4.6882C13.8635 4.76662 16.4011 5.59003 18.2636 7.15843C20.2241 8.80937 21.2043 11.0794 21.2043 13.9686C21.2043 16.8577 20.2241 19.1213 18.2636 20.7594C16.3031 22.3974 13.5945 23.2165 10.1378 23.2165H2.86336V31.7678H0V4.68201H10.1378ZM10.0605 7.15843H2.86336V20.7013H10.0605C12.7432 20.7013 14.794 20.1145 16.2128 18.9408C17.6316 17.767 18.341 16.1096 18.341 13.9686C18.341 11.7759 17.6316 10.0927 16.2128 8.919C14.794 7.74529 12.7432 7.15843 10.0605 7.15843Z" fill="white"/>
<path d="M29.9491 31.7678V21.3978C29.9491 19.0246 30.5553 17.1802 31.7677 15.8646C32.9801 14.549 34.6568 13.8912 36.7979 13.8912L37.4557 13.9299V11.26C35.5726 11.26 33.9926 11.6082 32.7157 12.3047C31.4388 13.0012 30.4779 14.0331 29.833 15.4002V11.4148H27.2018V31.7678H29.9491Z" fill="white"/>
<path d="M51.0375 11.26C52.998 11.26 54.765 11.6985 56.3386 12.5756C57.9121 13.4526 59.1439 14.678 60.0339 16.2515C60.9238 17.8251 61.3688 19.605 61.3688 21.5913C61.3688 23.5776 60.9238 25.3575 60.0339 26.9311C59.1439 28.5046 57.9121 29.7364 56.3386 30.6264C54.765 31.5163 52.998 31.9613 51.0375 31.9613C49.077 31.9613 47.31 31.5163 45.7364 30.6264C44.1628 29.7364 42.9246 28.5046 42.0218 26.9311C41.1189 25.3575 40.6675 23.5776 40.6675 21.5913C40.6675 19.605 41.1189 17.8251 42.0218 16.2515C42.9246 14.678 44.1628 13.4526 45.7364 12.5756C47.31 11.6985 49.077 11.26 51.0375 11.26ZM51.0375 13.659C49.5929 13.659 48.2967 13.9879 47.1487 14.6457C46.0008 15.3035 45.0979 16.2386 44.4402 17.451C43.7824 18.6634 43.4535 20.0435 43.4535 21.5913C43.4535 23.1391 43.7824 24.5191 44.4402 25.7316C45.0979 26.944 46.0008 27.8791 47.1487 28.5369C48.2967 29.1947 49.5929 29.5236 51.0375 29.5236C52.4821 29.5236 53.7783 29.1947 54.9262 28.5369C56.0742 27.8791 56.9706 26.944 57.6155 25.7316C58.2604 24.5191 58.5828 23.1391 58.5828 21.5913C58.5828 20.0435 58.2604 18.6634 57.6155 17.451C56.9706 16.2386 56.0742 15.3035 54.9262 14.6457C53.7783 13.9879 52.4821 13.659 51.0375 13.659Z" fill="white"/>
<path fill-rule="evenodd" clip-rule="evenodd" d="M68.5657 6.92626C69.1332 6.92626 69.6104 6.73279 69.9974 6.34585C70.3843 5.95891 70.5778 5.48168 70.5778 4.91417C70.5778 4.39825 70.3843 3.95326 69.9974 3.57922C69.6104 3.20518 69.1332 3.01816 68.5657 3.01816C67.9982 3.01816 67.5209 3.21163 67.134 3.59857C66.7471 3.98551 66.5536 4.43694 66.5536 4.95286C66.5536 5.49458 66.7471 5.95891 67.134 6.34585C67.5209 6.73279 67.9982 6.92626 68.5657 6.92626Z" fill="white"/>
<path d="M63.9613 39.4679C65.8702 39.4679 67.3406 38.9133 68.3724 37.8041C69.4043 36.6949 69.9202 35.1858 69.9202 33.2769V11.4148H67.1729V33.2769C67.1729 34.5409 66.8827 35.4954 66.3023 36.1403C65.7219 36.7852 64.89 37.1076 63.8065 37.1076C62.4909 37.1076 61.4333 36.7594 60.6336 36.0629L59.6663 38.1524C60.1564 38.5909 60.7819 38.9198 61.5429 39.1391C62.3039 39.3583 63.11 39.4679 63.9613 39.4679Z" fill="white"/>
<path d="M85.4751 11.26C87.3582 11.26 89.0479 11.6985 90.544 12.5756C92.0402 13.4526 93.2139 14.6715 94.0652 16.2322C94.9165 17.7928 95.3421 19.5792 95.3421 21.5913L95.3034 22.4426H78.278L78.3148 22.8344C78.537 24.7699 79.3373 26.3482 80.7158 27.5695C82.1861 28.8722 84.0434 29.5236 86.2877 29.5236C87.5517 29.5236 88.7125 29.2979 89.7702 28.8464C90.8278 28.395 91.7436 27.7307 92.5175 26.8537L94.0652 28.6336L93.7876 28.9509C92.9344 29.8796 91.8983 30.5993 90.6795 31.11C89.3252 31.6775 87.8355 31.9613 86.2103 31.9613C84.1208 31.9613 82.27 31.5163 80.6577 30.6264C79.0455 29.7364 77.7879 28.5046 76.8851 26.9311C75.9822 25.3575 75.5308 23.5776 75.5308 21.5913C75.5308 19.605 75.9628 17.8251 76.827 16.2515C77.6912 14.678 78.8778 13.4526 80.3869 12.5756C81.8959 11.6985 83.592 11.26 85.4751 11.26ZM85.4751 13.6203C83.5146 13.6203 81.8701 14.2459 80.5416 15.497C79.2131 16.7481 78.4586 18.3797 78.278 20.3918H92.7109C92.5303 18.3797 91.7758 16.7481 90.4473 15.497C89.1188 14.2459 87.4614 13.6203 85.4751 13.6203Z" fill="white"/>
<path d="M109.388 31.9613C111.116 31.9613 112.677 31.6195 114.07 30.9359C115.463 30.2523 116.559 29.2527 117.359 27.9371L115.308 26.5441C114.638 27.5502 113.786 28.2983 112.754 28.7884C111.723 29.2785 110.6 29.5236 109.388 29.5236C107.918 29.5236 106.596 29.1947 105.422 28.5369C104.248 27.8791 103.332 26.9504 102.675 25.7509C102.017 24.5514 101.688 23.1648 101.688 21.5913C101.688 20.0435 102.017 18.6634 102.675 17.451C103.332 16.2386 104.248 15.3035 105.422 14.6457C106.596 13.9879 107.918 13.659 109.388 13.659C110.6 13.659 111.723 13.9105 112.754 14.4135C113.786 14.9166 114.638 15.6711 115.308 16.6771L117.359 15.2842C116.559 13.9686 115.469 12.969 114.089 12.2854C112.709 11.6018 111.142 11.26 109.388 11.26C107.376 11.26 105.577 11.6985 103.99 12.5756C102.404 13.4526 101.159 14.678 100.256 16.2515C99.3534 17.8251 98.902 19.605 98.902 21.5913C98.902 23.5776 99.3534 25.364 100.256 26.9504C101.159 28.5369 102.404 29.7686 103.99 30.6457C105.577 31.5228 107.376 31.9613 109.388 31.9613Z" fill="white"/>
<path d="M129.161 31.9613C129.986 31.9613 130.779 31.8388 131.54 31.5937C132.301 31.3486 132.94 30.9939 133.456 30.5296L132.488 28.5562C132.101 28.8916 131.643 29.1495 131.115 29.3301C130.586 29.5107 130.038 29.601 129.47 29.601C128.335 29.601 127.464 29.285 126.858 28.653C126.252 28.0209 125.949 27.0987 125.949 25.8863V13.7364H132.14V11.4148H125.949V6.96494H123.202V11.4148H119.564V13.7364H123.202V26.0411C123.202 27.9242 123.718 29.3817 124.749 30.4135C125.781 31.4454 127.252 31.9613 129.161 31.9613Z" fill="white"/>
<path d="M161.78 4.68201L162.379 4.68932C165.152 4.75753 167.615 5.30326 169.77 6.3265C172.079 7.42283 173.872 8.98994 175.149 11.0278C176.426 13.0657 177.064 15.4647 177.064 18.2249C177.064 20.9851 176.426 23.3841 175.149 25.422C173.872 27.4599 172.079 29.027 169.77 30.1233C167.461 31.2197 164.798 31.7678 161.78 31.7678H148.43V4.68201H161.78ZM161.393 11.8017H157.562V24.6481H161.393C163.353 24.6481 164.921 24.0871 166.094 22.9649C167.268 21.8428 167.855 20.2628 167.855 18.2249C167.855 16.187 167.268 14.607 166.094 13.4849C164.921 12.3628 163.353 11.8017 161.393 11.8017Z" fill="black"/>
<path fill-rule="evenodd" clip-rule="evenodd" d="M184.493 8.89963C186.093 8.89963 187.369 8.46755 188.324 7.60338C189.278 6.73921 189.756 5.63643 189.756 4.29504C189.756 3.03103 189.278 1.99919 188.324 1.19952C187.369 0.399838 186.093 0 184.493 0C182.92 0 181.649 0.419186 180.682 1.25756C179.715 2.09593 179.231 3.16001 179.231 4.44982C179.231 5.73962 179.715 6.8037 180.682 7.64208C181.649 8.48045 182.92 8.89963 184.493 8.89963Z" fill="black"/>
<path d="M188.866 31.7678V10.6022H180.121V31.7678H188.866Z" fill="black"/>
<path d="M201.79 10.2152C204.679 10.2152 206.768 11.1439 208.058 13.0012V10.6022H216.377V27.5502L216.371 28.048C216.282 31.8247 215.169 34.6833 213.03 36.6239C210.799 38.6489 207.619 39.6614 203.492 39.6614C201.377 39.6614 199.403 39.4357 197.572 38.9843C195.74 38.5328 194.18 37.8815 192.89 37.0302L195.831 31.0713L196.151 31.2981C196.921 31.8144 197.859 32.2418 198.965 32.5804C200.229 32.9673 201.441 33.1608 202.602 33.1608C204.356 33.1608 205.633 32.7868 206.433 32.0387C207.233 31.2906 207.632 30.1943 207.632 28.7497V28.3627L207.407 28.6052C206.098 29.9397 204.226 30.607 201.79 30.607C199.984 30.607 198.301 30.1878 196.74 29.3494C195.179 28.5111 193.935 27.3116 193.006 25.7509C192.077 24.1902 191.613 22.4039 191.613 20.3918C191.613 18.3797 192.077 16.5998 193.006 15.052C193.935 13.5042 195.179 12.3112 196.74 11.4728C198.301 10.6344 199.984 10.2152 201.79 10.2152ZM204.111 17.0254C203.054 17.0254 202.183 17.3349 201.499 17.9541C200.816 18.5732 200.474 19.3857 200.474 20.3918C200.474 21.3978 200.822 22.2168 201.519 22.8488C202.215 23.4808 203.079 23.7969 204.111 23.7969C205.143 23.7969 206.001 23.4808 206.684 22.8488C207.368 22.2168 207.71 21.3978 207.71 20.3918C207.71 19.3857 207.368 18.5732 206.684 17.9541C206.001 17.3349 205.143 17.0254 204.111 17.0254Z" fill="black"/>
<path fill-rule="evenodd" clip-rule="evenodd" d="M224.619 8.89963C226.218 8.89963 227.495 8.46755 228.45 7.60338C229.404 6.73921 229.881 5.63643 229.881 4.29504C229.881 3.03103 229.404 1.99919 228.45 1.19952C227.495 0.399838 226.218 0 224.619 0C223.045 0 221.775 0.419186 220.807 1.25756C219.84 2.09593 219.356 3.16001 219.356 4.44982C219.356 5.73962 219.84 6.8037 220.807 7.64208C221.775 8.48045 223.045 8.89963 224.619 8.89963Z" fill="black"/>
<path d="M228.992 31.7678V10.6022H220.247V31.7678H228.992Z" fill="black"/>
<path d="M243.076 32.1548C245.346 32.1548 247.139 31.7807 248.454 31.0326L246.365 24.9577C245.797 25.3446 245.14 25.5381 244.392 25.5381C243.85 25.5381 243.411 25.3575 243.076 24.9964C242.741 24.6352 242.573 24.1322 242.573 23.4873V18.1475H246.907V11.763H242.573V5.8428H233.828V11.763H230.926V18.1475H233.828V23.5647C233.828 26.428 234.628 28.5756 236.227 30.0072C237.826 31.4389 240.109 32.1548 243.076 32.1548Z" fill="black"/>
<path d="M260.14 10.2152C263.855 10.2152 266.692 11.0472 268.653 12.711C270.613 14.3749 271.593 16.9351 271.593 20.3918V31.7678H263.468V28.9819L263.337 29.2408C262.293 31.1834 260.338 32.1548 257.47 32.1548C255.793 32.1548 254.368 31.8646 253.194 31.2842C252.021 30.7037 251.131 29.917 250.525 28.9238C249.918 27.9307 249.615 26.815 249.615 25.5768C249.615 23.4873 250.415 21.9008 252.014 20.8174C253.614 19.734 256.038 19.1923 259.289 19.1923H262.81L262.767 18.9816C262.409 17.4711 261.094 16.7158 258.824 16.7158C257.87 16.7158 256.903 16.8642 255.922 17.1608C254.942 17.4575 254.104 17.8638 253.407 18.3797L250.621 12.6143L251.035 12.3709C252.162 11.7378 253.488 11.232 255.013 10.8537C256.728 10.4281 258.437 10.2152 260.14 10.2152ZM262.849 23.4099H260.682L260.408 23.4148C258.811 23.474 258.012 24.0657 258.012 25.1898C258.012 25.68 258.199 26.0863 258.573 26.4087C258.947 26.7312 259.456 26.8924 260.101 26.8924C260.72 26.8924 261.275 26.7247 261.765 26.3894C262.255 26.054 262.616 25.551 262.849 24.8803V23.4099Z" fill="black"/>
<path d="M284.131 31.7678V3.05685H275.386V31.7678H284.131Z" fill="black"/>
</g>
<defs>
<clipPath id="clip0_19981_174700">
<rect width="284.831" height="40.3063" fill="white"/>
</clipPath>
</defs>
</svg>
